<svg width="50" height="50" viewBox="0 0 50 50" fill="none" xmlns="http://www.w3.org/2000/svg">
<path fill-rule="evenodd" clip-rule="evenodd" d="M49.1379 24.7306C49.1379 38.3893 38.1384 49.4612 24.569 49.4612C11 49.4612 0 38.3893 0 24.7306C0 11.0723 11 0 24.569 0C38.1384 0 49.1379 11.0723 49.1379 24.7306Z" fill="#ECB360"/>
<path fill-rule="evenodd" clip-rule="evenodd" d="M42.5862 22.2575C42.5862 34.55 33.0524 44.5151 21.2931 44.5151C9.53333 44.5151 0 34.55 0 22.2575C0 9.96513 9.53333 0 21.2931 0C33.0524 0 42.5862 9.96513 42.5862 22.2575Z" fill="#D76835"/>
<path fill-rule="evenodd" clip-rule="evenodd" d="M44.2241 19.7842C44.2241 30.7111 35.7908 39.569 25.3872 39.569C14.985 39.569 6.55172 30.7111 6.55172 19.7842C6.55172 8.85787 14.985 0 25.3872 0C35.7908 0 44.2241 8.85787 44.2241 19.7842Z" fill="#D33A41"/>
<path fill-rule="evenodd" clip-rule="evenodd" d="M42.5862 21.4334C42.5862 31.449 34.886 39.569 25.3877 39.569C15.8894 39.569 8.18965 31.449 8.18965 21.4334C8.18965 11.4169 15.8894 3.29742 25.3877 3.29742C34.886 3.29742 42.5862 11.4169 42.5862 21.4334Z" fill="#B6CB46"/>
<path fill-rule="evenodd" clip-rule="evenodd" d="M40.9483 23.0817C40.9483 32.1873 33.6148 39.569 24.5687 39.569C15.5231 39.569 8.18965 32.1873 8.18965 23.0817C8.18965 13.9761 15.5231 6.59483 24.5687 6.59483C33.6148 6.59483 40.9483 13.9761 40.9483 23.0817Z" fill="#66AD4A"/>
<path fill-rule="evenodd" clip-rule="evenodd" d="M34.3965 19.7845C34.3965 27.0689 28.5299 32.9741 21.2931 32.9741C14.0558 32.9741 8.18965 27.0689 8.18965 19.7845C8.18965 12.5 14.0558 6.59483 21.2931 6.59483C28.5299 6.59483 34.3965 12.5 34.3965 19.7845Z" fill="#AED7DC"/>
<path fill-rule="evenodd" clip-rule="evenodd" d="M36.0345 18.1358C36.0345 24.5095 30.9014 29.6767 24.5687 29.6767C18.2361 29.6767 13.1034 24.5095 13.1034 18.1358C13.1034 11.7616 18.2361 6.59483 24.5687 6.59483C30.9014 6.59483 36.0345 11.7616 36.0345 18.1358Z" fill="#5BB1CF"/>
<path fill-rule="evenodd" clip-rule="evenodd" d="M36.0345 18.9599C36.0345 24.8785 31.6347 29.6767 26.2069 29.6767C20.7791 29.6767 16.3793 24.8785 16.3793 18.9599C16.3793 13.0418 20.7791 8.24353 26.2069 8.24353C31.6347 8.24353 36.0345 13.0418 36.0345 18.9599Z" fill="#25A8C3"/>
<path fill-rule="evenodd" clip-rule="evenodd" d="M24.5687 29.6767C20.0461 29.6767 16.3793 25.6167 16.3793 20.6086C16.3793 15.6005 20.0461 11.5409 24.5687 11.5409C29.0918 11.5409 32.7586 15.6005 32.7586 20.6086C32.7586 25.6167 29.0918 29.6767 24.5687 29.6767Z" fill="#1B1A18"/>
<path fill-rule="evenodd" clip-rule="evenodd" d="M29.0376 17.9941C28.2585 19.3061 26.7266 20.0648 25.6156 19.6877C24.5045 19.3111 24.2356 17.9415 25.0141 16.629C25.7932 15.3166 27.3251 14.5583 28.4362 14.935C29.5472 15.3116 29.8161 16.6812 29.0376 17.9941Z" fill="#FFFFFE"/>
</svg>
